<svg width="54" height="55" viewBox="0 0 54 55" fill="none" xmlns="http://www.w3.org/2000/svg">
<path d="M29.9167 13.2302C29.9167 14.841 28.6109 16.1469 27 16.1469C25.3891 16.1469 24.0833 14.841 24.0833 13.2302C24.0833 11.6193 25.3891 10.3135 27 10.3135C28.6109 10.3135 29.9167 11.6193 29.9167 13.2302ZM30.0088 1.78027C28.2163 0.47217 25.7838 0.47217 23.9912 1.78027L2.34416 17.5768C-0.505654 19.6564 0.965309 24.1676 4.49325 24.1676H5.125V41.084C2.52794 42.4116 0.75 45.1133 0.75 48.2301V52.6051C0.75 53.8132 1.72939 54.7926 2.9375 54.7926H51.0625C52.2706 54.7926 53.25 53.8132 53.25 52.6051V48.2301C53.25 45.1133 51.472 42.4116 48.875 41.084V24.1676H49.5068C53.0348 24.1676 54.5056 19.6564 51.6558 17.5768L30.0088 1.78027ZM26.5701 5.31433C26.8262 5.12746 27.1738 5.12746 27.4299 5.31433L47.2705 19.7927H6.72949L26.5701 5.31433ZM44.5 24.1676V40.2092H38.6667V24.1676H44.5ZM34.2917 24.1676V40.2092H29.1875V24.1676H34.2917ZM24.8125 24.1676V40.2092H19.7083V24.1676H24.8125ZM8.77083 44.5842H45.2292C47.2428 44.5842 48.875 46.2167 48.875 48.2301V50.4176H5.125V48.2301C5.125 46.2167 6.75728 44.5842 8.77083 44.5842ZM9.5 40.2092V24.1676H15.3333V40.2092H9.5Z" fill="#60AC45"/>
</svg>
