<svg width="60" height="60" viewBox="0 0 60 60" fill="none" xmlns="http://www.w3.org/2000/svg">
<path d="M5.9375 5.20837C5.5348 5.20837 5.20834 5.53484 5.20834 5.93754V42.3959C5.20834 42.7987 5.5348 43.125 5.9375 43.125H21.25V47.5H5.9375C3.11854 47.5 0.833336 45.2148 0.833336 42.3959V5.93754C0.833336 3.11858 3.11854 0.833374 5.9375 0.833374H21.9792C24.7981 0.833374 27.0833 3.11858 27.0833 5.93754V14.6875C27.0833 15.0902 27.4097 15.4167 27.8125 15.4167H30.7292C33.5481 15.4167 35.8333 17.7019 35.8333 20.5209V20.7302L31.4583 24.8136V20.5209C31.4583 20.1182 31.132 19.7917 30.7292 19.7917H27.8125C24.9935 19.7917 22.7083 17.5065 22.7083 14.6875V5.93754C22.7083 5.53484 22.3819 5.20837 21.9792 5.20837H5.9375ZM12.5 11.7709C12.5 12.979 11.5206 13.9584 10.3125 13.9584C9.10439 13.9584 8.125 12.979 8.125 11.7709C8.125 10.5628 9.10439 9.58337 10.3125 9.58337C11.5206 9.58337 12.5 10.5628 12.5 11.7709ZM10.3125 22.7084C11.5206 22.7084 12.5 21.729 12.5 20.5209C12.5 19.3128 11.5206 18.3334 10.3125 18.3334C9.10439 18.3334 8.125 19.3128 8.125 20.5209C8.125 21.729 9.10439 22.7084 10.3125 22.7084ZM12.5 29.2709C12.5 30.479 11.5206 31.4584 10.3125 31.4584C9.10439 31.4584 8.125 30.479 8.125 29.2709C8.125 28.0628 9.10439 27.0834 10.3125 27.0834C11.5206 27.0834 12.5 28.0628 12.5 29.2709ZM17.6042 13.9584C18.8123 13.9584 19.7917 12.979 19.7917 11.7709C19.7917 10.5628 18.8123 9.58337 17.6042 9.58337C16.3961 9.58337 15.4167 10.5628 15.4167 11.7709C15.4167 12.979 16.3961 13.9584 17.6042 13.9584ZM19.7917 20.5209C19.7917 21.729 18.8123 22.7084 17.6042 22.7084C16.3961 22.7084 15.4167 21.729 15.4167 20.5209C15.4167 19.3128 16.3961 18.3334 17.6042 18.3334C18.8123 18.3334 19.7917 19.3128 19.7917 20.5209ZM17.6042 31.4584C18.8123 31.4584 19.7917 30.479 19.7917 29.2709C19.7917 28.0628 18.8123 27.0834 17.6042 27.0834C16.3961 27.0834 15.4167 28.0628 15.4167 29.2709C15.4167 30.479 16.3961 31.4584 17.6042 31.4584ZM45.1495 22.5291C43.1883 20.6988 40.145 20.6988 38.1839 22.5291L25.788 34.0985C24.7538 35.064 24.1667 36.4152 24.1667 37.8301V54.7917C24.1667 57.2079 26.1255 59.1667 28.5417 59.1667H34.375C36.7912 59.1667 38.75 57.2079 38.75 54.7917V47.5012H44.5833V54.7917C44.5833 57.2079 46.5422 59.1667 48.9583 59.1667H54.7917C57.2078 59.1667 59.1667 57.2079 59.1667 54.7917V37.8301C59.1667 36.4152 58.5795 35.064 57.5453 34.0985L45.1495 22.5291ZM41.1691 25.7274C41.4494 25.4661 41.884 25.4661 42.1643 25.7274L54.5601 37.297C54.7077 37.4349 54.7917 37.628 54.7917 37.8301V54.7917H48.9583V47.5012C48.9583 45.085 46.9995 43.1262 44.5833 43.1262H38.75C36.3338 43.1262 34.375 45.085 34.375 47.5012V54.7917H28.5417V37.8301C28.5417 37.628 28.6257 37.4349 28.7733 37.297L41.1691 25.7274Z" fill="#60AC45"/>
</svg>
