<svg width="70" height="70" viewBox="0 0 70 70" fill="none" xmlns="http://www.w3.org/2000/svg">
<path d="M37.9167 18.2301C37.9167 19.8409 36.6109 21.1467 35 21.1467C33.3891 21.1467 32.0833 19.8409 32.0833 18.2301C32.0833 16.6192 33.3891 15.3134 35 15.3134C36.6109 15.3134 37.9167 16.6192 37.9167 18.2301ZM38.0088 6.78014C36.2163 5.47205 33.7838 5.47205 31.9912 6.78014L10.3442 22.5767C7.49435 24.6562 8.96531 29.1675 12.4933 29.1675H13.125V46.0838C10.5279 47.4115 8.75 50.1132 8.75 53.23V57.605C8.75 58.813 9.72939 59.7925 10.9375 59.7925H59.0625C60.2706 59.7925 61.25 58.813 61.25 57.605V53.23C61.25 50.1132 59.472 47.4115 56.875 46.0838V29.1675H57.5068C61.0348 29.1675 62.5056 24.6563 59.6558 22.5767L38.0088 6.78014ZM34.5701 10.3142C34.8262 10.1273 35.1738 10.1273 35.4299 10.3142L55.2705 24.7926H14.7295L34.5701 10.3142ZM52.5 29.1675V45.2091H46.6667V29.1675H52.5ZM42.2917 29.1675V45.2091H37.1875V29.1675H42.2917ZM32.8125 29.1675V45.2091H27.7083V29.1675H32.8125ZM16.7708 49.5841H53.2292C55.2428 49.5841 56.875 51.2166 56.875 53.23V55.4175H13.125V53.23C13.125 51.2166 14.7573 49.5841 16.7708 49.5841ZM17.5 45.2091V29.1675H23.3333V45.2091H17.5Z" fill="#60AC45"/>
</svg>
