<svg width="70" height="70" viewBox="0 0 70 70" fill="none" xmlns="http://www.w3.org/2000/svg">
<path d="M10.9372 10.2083C10.5345 10.2083 10.208 10.5347 10.208 10.9374V47.3957C10.208 47.7985 10.5345 48.1249 10.9372 48.1249H26.2497V52.4999H10.9372C8.11822 52.4999 5.83301 50.2147 5.83301 47.3957V10.9374C5.83301 8.11846 8.11822 5.83325 10.9372 5.83325H26.9788C29.7978 5.83325 32.083 8.11846 32.083 10.9374V19.6874C32.083 20.0901 32.4094 20.4166 32.8122 20.4166H35.7288C38.5478 20.4166 40.833 22.7018 40.833 25.5208V25.7301L36.458 29.8135V25.5208C36.458 25.118 36.1316 24.7916 35.7288 24.7916H32.8122C29.9932 24.7916 27.708 22.5064 27.708 19.6874V10.9374C27.708 10.5347 27.3815 10.2083 26.9788 10.2083H10.9372ZM17.4997 16.7708C17.4997 17.9789 16.5203 18.9583 15.3122 18.9583C14.1041 18.9583 13.1247 17.9789 13.1247 16.7708C13.1247 15.5626 14.1041 14.5833 15.3122 14.5833C16.5203 14.5833 17.4997 15.5626 17.4997 16.7708ZM15.3122 27.7083C16.5203 27.7083 17.4997 26.7289 17.4997 25.5208C17.4997 24.3126 16.5203 23.3333 15.3122 23.3333C14.1041 23.3333 13.1247 24.3126 13.1247 25.5208C13.1247 26.7289 14.1041 27.7083 15.3122 27.7083ZM17.4997 34.2708C17.4997 35.4788 16.5203 36.4583 15.3122 36.4583C14.1041 36.4583 13.1247 35.4788 13.1247 34.2708C13.1247 33.0627 14.1041 32.0833 15.3122 32.0833C16.5203 32.0833 17.4997 33.0627 17.4997 34.2708ZM22.6038 18.9583C23.812 18.9583 24.7913 17.9789 24.7913 16.7708C24.7913 15.5626 23.812 14.5833 22.6038 14.5833C21.3957 14.5833 20.4163 15.5626 20.4163 16.7708C20.4163 17.9789 21.3957 18.9583 22.6038 18.9583ZM24.7913 25.5208C24.7913 26.7289 23.812 27.7083 22.6038 27.7083C21.3957 27.7083 20.4163 26.7289 20.4163 25.5208C20.4163 24.3126 21.3957 23.3333 22.6038 23.3333C23.812 23.3333 24.7913 24.3126 24.7913 25.5208ZM22.6038 36.4583C23.812 36.4583 24.7913 35.4788 24.7913 34.2708C24.7913 33.0627 23.812 32.0833 22.6038 32.0833C21.3957 32.0833 20.4163 33.0627 20.4163 34.2708C20.4163 35.4788 21.3957 36.4583 22.6038 36.4583ZM50.1491 27.529C48.188 25.6987 45.1447 25.6987 43.1835 27.529L30.7877 39.0984C29.7535 40.0638 29.1663 41.4151 29.1663 42.83V59.7916C29.1663 62.2077 31.1252 64.1666 33.5413 64.1666H39.3747C41.7908 64.1666 43.7497 62.2077 43.7497 59.7916V52.5011H49.583V59.7916C49.583 62.2077 51.5418 64.1666 53.958 64.1666H59.7913C62.2075 64.1666 64.1663 62.2077 64.1663 59.7916V42.83C64.1663 41.4151 63.5792 40.0638 62.545 39.0984L50.1491 27.529ZM46.1688 30.7273C46.449 30.466 46.8836 30.466 47.1639 30.7273L59.5598 42.2968C59.7073 42.4348 59.7913 42.6279 59.7913 42.83V59.7916H53.958V52.5011C53.958 50.0849 51.9992 48.1261 49.583 48.1261H43.7497C41.3335 48.1261 39.3747 50.0849 39.3747 52.5011V59.7916H33.5413V42.83C33.5413 42.6279 33.6253 42.4348 33.7729 42.2968L46.1688 30.7273Z" fill="#60AC45"/>
</svg>
