<svg width="50" height="50" viewBox="0 0 50 50" fill="none" xmlns="http://www.w3.org/2000/svg">
<g clip-path="url(#clip0_240_208)">
<path d="M46.4094 31.7376H43.2099L45.9808 30.1378C46.8092 29.6595 47.4023 28.885 47.651 27.9566C47.8997 27.0283 47.7733 26.0611 47.2951 25.2327L41.7546 15.6362C41.2764 14.8079 40.5018 14.2147 39.5734 13.9659C38.6446 13.7169 37.6776 13.8435 36.8493 14.3218L34.0785 15.9216L35.6783 13.1507C36.1566 12.3224 36.283 11.355 36.0342 10.4268C35.7855 9.49856 35.1924 8.72391 34.364 8.24574L24.7675 2.70515C23.0529 1.71506 20.8524 2.30478 19.8625 4.01938L19.62 4.43938C19.2894 5.01188 19.4856 5.74392 20.058 6.07451C20.6306 6.40498 21.3625 6.20892 21.6931 5.63643L21.9356 5.21631C22.2656 4.6449 22.999 4.44812 23.5706 4.77811L33.1671 10.3187C33.4417 10.4773 33.6387 10.7356 33.722 11.0462C33.8052 11.3568 33.7638 11.6791 33.6052 11.9537L20.321 34.9629C20.3143 34.974 20.3078 34.9854 20.3014 34.9967L19.62 36.177C19.5149 36.3589 19.4596 36.5654 19.4596 36.7755V37.2687C19.4596 37.6964 19.6878 38.0915 20.0581 38.3053C20.2433 38.4122 20.4499 38.4657 20.6566 38.4657C20.8633 38.4657 21.0699 38.4122 21.255 38.3053L22.5046 37.5839C22.7796 37.4252 22.9802 37.1636 23.0623 36.8571C23.1445 36.5505 23.1014 36.2237 22.9427 35.9488L22.7293 35.5791L24.4012 32.6834L25.4505 34.5008C25.6723 34.8848 26.0745 35.0994 26.4883 35.0994C26.6913 35.0994 26.897 35.0477 27.0855 34.9389L31.6664 32.2942C31.9413 32.1355 32.1419 31.8741 32.2241 31.5674C32.3063 31.2607 32.2632 30.934 32.1045 30.6592L29.4596 26.0783C29.3009 25.8034 29.0395 25.6028 28.7328 25.5206C28.6742 25.505 28.6147 25.4953 28.5551 25.4886L31.6847 20.0679L38.0464 16.3949C38.321 16.2364 38.6431 16.1949 38.9539 16.2781C39.2646 16.3614 39.523 16.5584 39.6815 16.833L45.222 26.4295C45.3804 26.704 45.422 27.0264 45.3388 27.337C45.2556 27.6476 45.0585 27.906 44.7839 28.0646L21.7758 41.3483C21.7637 41.355 21.7519 41.3619 21.74 41.3691L20.0581 42.3401C19.6878 42.5539 19.4596 42.949 19.4596 43.3767V43.5137C19.4596 44.1748 19.9956 44.7106 20.6566 44.7106H22.3554C23.0163 44.7106 23.5523 44.1748 23.5523 43.5137V43.087L26.448 41.4151V43.5137C26.448 44.1748 26.984 44.7106 27.645 44.7106H32.9344C33.5954 44.7106 34.1314 44.1748 34.1314 43.5137V38.2241C34.1314 37.8287 33.9386 37.4789 33.643 37.2611L39.0635 34.1316H46.4093C47.0693 34.1316 47.6063 34.6685 47.6063 35.3285V46.4096C47.6063 47.0695 47.0693 47.6065 46.4093 47.6065H20.1554C19.4945 47.6065 18.9585 48.1423 18.9585 48.8034C18.9585 49.4645 19.4945 50.0003 20.1554 50.0003H46.4096C48.3895 50.0003 50.0004 48.3895 50.0004 46.4096V35.3285C50.0002 33.3484 48.3894 31.7376 46.4094 31.7376ZM27.9851 28.3119L29.4331 30.8197L26.9252 32.2675L25.7834 30.2897L26.3954 29.2298L27.9851 28.3119ZM31.7376 39.4211V42.3168H28.842V40.033L29.9019 39.4212L31.7376 39.4211Z" fill="#202220"/>
<path d="M43.5134 44.7105C44.1743 44.7105 44.7103 44.1747 44.7103 43.5136V38.224C44.7103 37.563 44.1743 37.0271 43.5134 37.0271H38.2238C37.5628 37.0271 37.0269 37.563 37.0269 38.224V43.5136C37.0269 44.1747 37.5628 44.7105 38.2238 44.7105H43.5134ZM39.4207 39.4211H42.3164V42.3168H39.4207V39.4211Z" fill="#202220"/>
<path d="M36.2474 29.6495L40.8283 27.0047C41.1032 26.846 41.3038 26.5846 41.3859 26.2779C41.4681 25.9713 41.425 25.6445 41.2663 25.3697L38.6215 20.7888C38.291 20.2165 37.559 20.0202 36.9865 20.3508L32.4056 22.9956C32.1307 23.1543 31.9301 23.4157 31.8479 23.7224C31.7657 24.029 31.8088 24.3558 31.9675 24.6306L34.6124 29.2115C34.8342 29.5955 35.2363 29.8101 35.6501 29.8101C35.8531 29.8101 36.0589 29.7584 36.2474 29.6495ZM34.6391 24.4701L37.1469 23.0222L38.5948 25.53L36.087 26.9778L34.6391 24.4701Z" fill="#202220"/>
<path d="M19.6192 25.5473C19.289 26.1199 19.4855 26.8519 20.0582 27.1822L20.0803 27.1949C20.2687 27.3036 20.4743 27.3552 20.6771 27.3552C21.0907 27.3552 21.4931 27.1406 21.7148 26.7566L24.3597 22.1757C24.5184 21.9008 24.5615 21.5741 24.4792 21.2675C24.397 20.9608 24.1965 20.6994 23.9216 20.5407L21.2547 19.001C20.6821 18.6705 19.9502 18.8667 19.6197 19.439C19.2891 20.0115 19.4853 20.7436 20.0578 21.0741L21.6881 22.0153L19.7653 25.3459C19.7107 25.4066 19.6617 25.4738 19.6192 25.5473Z" fill="#202220"/>
<path d="M20.7885 15.388L25.3694 18.0329C25.5579 18.1417 25.7637 18.1934 25.9667 18.1934C26.3803 18.1934 26.7827 17.9788 27.0044 17.5948L29.6493 13.0139C29.808 12.739 29.8511 12.4124 29.7688 12.1057C29.6866 11.7991 29.4861 11.5376 29.2112 11.3789L24.6302 8.73396C24.0576 8.40337 23.3257 8.59955 22.9952 9.17204L20.3503 13.7529C20.1916 14.0279 20.1485 14.3545 20.2308 14.6612C20.313 14.9678 20.5136 15.2292 20.7885 15.388ZM24.4698 11.4056L26.9776 12.8534L25.5297 15.3612L23.0219 13.9133L24.4698 11.4056Z" fill="#202220"/>
<path d="M14.6718 0.00012207H3.59078C1.61083 0.00012207 0 1.61095 0 3.59091V46.4093C0 48.3893 1.61083 50.0001 3.59078 50.0001H14.6718C16.6518 50.0001 18.2626 48.3893 18.2626 46.4093V3.59091C18.2626 1.61095 16.6518 0.00012207 14.6718 0.00012207ZM15.8688 46.4093C15.8688 47.0693 15.3318 47.6063 14.6718 47.6063H3.59078C2.9308 47.6063 2.39386 47.0693 2.39386 46.4093V3.59091C2.39386 2.93092 2.9308 2.39398 3.59078 2.39398H14.6718C15.3318 2.39398 15.8688 2.93092 15.8688 3.59091V46.4093Z" fill="#202220"/>
<path d="M9.13116 38.475C7.81119 38.475 6.7373 39.5489 6.7373 40.8688C6.7373 42.1888 7.81119 43.2627 9.13116 43.2627C10.4511 43.2627 11.525 42.1888 11.525 40.8688C11.525 39.5489 10.4511 38.475 9.13116 38.475Z" fill="#202220"/>
</g>
<defs>
<clipPath id="clip0_240_208">
<rect width="50" height="50" fill="white"/>
</clipPath>
</defs>
</svg>
