<svg width="78" height="80" viewBox="0 0 78 80" fill="none" xmlns="http://www.w3.org/2000/svg">
<path d="M54.4706 23.6397C50.4369 19.7074 44.9426 17.5417 39 17.5417C33.0574 17.5417 27.5631 19.7074 23.5294 23.6397C19.4966 27.5711 17.2757 32.9166 17.2757 38.6915C17.2757 44.8549 20.0161 50.7359 24.7942 54.8268C27.2979 56.9703 28.8783 59.9347 29.406 63.441C28.1217 64.1947 27.2581 65.5817 27.2581 67.1656V68.4619C27.2581 70.4316 28.5935 72.0971 30.4133 72.6178C30.1704 73.1561 30.0342 73.7515 30.0342 74.3783V75.6745C30.0342 78.0597 31.9913 80.0002 34.3967 80.0002H43.6034C46.0089 80.0002 47.966 78.0597 47.966 75.6745V74.3783C47.966 73.7515 47.8297 73.1559 47.5868 72.6178C49.4067 72.0971 50.742 70.4318 50.742 68.4619V67.1656C50.742 65.5817 49.8785 64.1947 48.5942 63.441C49.122 59.9347 50.7024 56.9703 53.206 54.8268C57.9841 50.7361 60.7244 44.855 60.7244 38.6915C60.7244 32.9166 58.5034 27.5711 54.4706 23.6397ZM45.2309 75.6744C45.2309 76.5515 44.5008 77.265 43.6034 77.265H34.3966C33.4991 77.265 32.7691 76.5515 32.7691 75.6744V74.3781C32.7691 73.501 33.4991 72.7874 34.3966 72.7874H43.6032C44.5007 72.7874 45.2308 73.5009 45.2308 74.3781L45.2309 75.6744ZM48.0068 68.4617C48.0068 69.3388 47.2767 70.0523 46.3793 70.0523H31.6205C30.7231 70.0523 29.993 69.3388 29.993 68.4617V67.1655C29.993 66.2884 30.7231 65.5749 31.6205 65.5749H46.3793C47.2767 65.5749 48.0068 66.2884 48.0068 67.1655V68.4617ZM34.7588 45.6833H32.0463C30.9494 45.6833 30.0571 44.8092 30.0571 43.735C30.0571 42.6609 30.9494 41.7867 32.0463 41.7867H32.7696C33.8665 41.7867 34.7588 42.6607 34.7588 43.735V45.6833ZM40.6041 62.8398H37.4938V48.4183H40.6041V62.8398ZM51.4272 52.7491C48.4595 55.2897 46.5747 58.7597 45.9203 62.8398H43.339V48.4183H46.0961C48.701 48.4183 50.8203 46.3173 50.8203 43.735C50.8203 41.1527 48.701 39.0516 46.0961 39.0516H45.3282C42.7232 39.0516 40.6039 41.1527 40.6039 43.735V45.6833H37.4937V43.735C37.4937 41.1527 35.3743 39.0516 32.7694 39.0516H32.0461C29.4412 39.0516 27.3219 41.1527 27.3219 43.735C27.3219 46.3174 29.4412 48.4183 32.0461 48.4183H34.7586V62.8398H32.0793C31.4249 58.7597 29.5402 55.2897 26.5725 52.7491C22.4022 49.1786 20.0102 44.0547 20.0102 38.6915C20.0102 28.1933 28.1738 20.2768 38.9996 20.2768C49.8255 20.2768 57.9891 28.1933 57.9891 38.6915C57.9894 44.0547 55.5976 49.1785 51.4272 52.7491ZM43.3391 45.6833V43.735C43.3391 42.6607 44.2314 41.7867 45.3284 41.7867H46.0962C47.1932 41.7867 48.0855 42.6607 48.0855 43.735C48.0855 44.8094 47.1932 45.6833 46.0962 45.6833H43.3391Z" fill="#1F242C"/>
<path d="M60.901 69.1513C59.8863 69.1513 58.9022 68.7675 58.1438 68.0111L54.2981 64.1761L56.2294 62.2395L60.075 66.0745C60.5971 66.595 61.2959 66.4424 61.7685 66.1381L66.4826 61.5938C66.9901 61.0805 66.8432 60.3971 66.545 59.9306L62.7906 56.1865C62.3236 55.7209 62.2555 54.9884 62.6285 54.4446C64.6749 51.4621 66.1533 47.986 66.9041 44.3923C67.0366 43.7585 67.5952 43.3044 68.2427 43.3044H73.5918C74.0439 43.2258 74.7267 42.9017 74.7267 42.1152V35.5033C74.6677 35.1641 74.4171 34.3745 73.3702 34.3745H67.9222C67.254 34.3745 66.6836 33.8916 66.5733 33.2325C66.006 29.8374 64.5802 26.3156 62.4502 23.0475C62.0969 22.5053 62.172 21.7896 62.6302 21.3325L66.4759 17.4974C66.9944 16.9803 66.8427 16.2877 66.5395 15.8191L61.9827 11.1183C61.4648 10.6089 60.775 10.7564 60.3046 11.0561L56.5501 14.8002C56.0851 15.2639 55.3561 15.3315 54.8137 14.9615C51.8222 12.9203 48.3357 11.4455 44.7309 10.6966C44.0964 10.5648 43.6415 10.0056 43.6415 9.35761V3.92427C43.6415 3.21299 43.1058 2.73504 42.6055 2.73504H35.9743C35.5222 2.8135 34.8395 3.13778 34.8395 3.92427V9.51709C34.8395 10.1858 34.3559 10.7564 33.6962 10.8662C30.2906 11.4323 26.7579 12.8545 23.4802 14.9791C22.9393 15.3297 22.227 15.255 21.7708 14.8L17.9251 10.965C17.4031 10.4446 16.7043 10.5971 16.2316 10.9014L11.5174 15.4458C11.0101 15.959 11.1571 16.6424 11.4554 17.1087L15.2097 20.8528C15.6767 21.3185 15.7448 22.0511 15.3718 22.5947C13.3255 25.5773 11.847 29.0533 11.0962 32.6472C10.9638 33.281 10.4051 33.735 9.7576 33.735H4.40854C3.9564 33.8135 3.27349 34.1378 3.27349 34.9243V41.5359C3.35247 41.986 3.67828 42.665 4.46973 42.665H9.9176C10.5858 42.665 11.1562 43.1479 11.2665 43.807C11.8338 47.2022 13.2596 50.7241 15.3897 53.992C15.7431 54.5342 15.668 55.2499 15.2097 55.707L11.3641 59.5421C10.8456 60.0592 10.9973 60.7518 11.3007 61.2203L15.8574 65.9214C16.3755 66.4306 17.0651 66.2831 17.5355 65.9836L21.2901 62.2393L23.2214 64.1759L19.3757 68.0109C19.3224 68.0641 19.2649 68.1128 19.2036 68.1564C17.4938 69.3744 15.3208 69.2489 13.9193 67.8511C13.9138 67.8456 13.9085 67.8402 13.9031 67.8345L9.25623 63.041C9.20922 62.9925 9.1658 62.9405 9.12632 62.8856C7.90255 61.1771 8.02854 59.0058 9.43264 57.6055L12.5051 54.5415C10.7198 51.5938 9.45042 48.4721 8.78768 45.4H4.46973C2.45896 45.4 0.810076 43.8884 0.54905 41.8056C0.542042 41.7492 0.538452 41.6925 0.538452 41.6356V34.9243C0.538452 32.9168 2.05315 31.2708 4.14033 31.0104C4.1964 31.0034 4.25298 30.9998 4.30956 30.9998H8.66717C9.4552 27.8179 10.7603 24.745 12.4887 22.0017L9.43281 18.9542C9.37931 18.901 9.33059 18.8434 9.28666 18.7822C8.0629 17.0737 8.18888 14.9024 9.59298 13.5022C9.59845 13.4968 9.60392 13.4915 9.60956 13.486L14.4166 8.85197C14.4653 8.80513 14.5173 8.76188 14.5723 8.72274C16.2819 7.50479 18.455 7.63026 19.8566 9.0282L22.933 12.0961C25.8904 10.3138 29.0227 9.04701 32.1048 8.38581V3.92427C32.1048 1.91658 33.6195 0.270598 35.7067 0.0105983C35.7624 0.00358974 35.819 0 35.8754 0H42.6053C44.6846 0 46.3764 1.76034 46.3764 3.92427V8.26564C49.5691 9.0518 52.652 10.3544 55.4041 12.0798L58.4643 9.0282C58.5176 8.97504 58.575 8.92632 58.6364 8.88274C60.346 7.66479 62.519 7.79026 63.9207 9.18803C63.9261 9.1935 63.9316 9.19897 63.9369 9.20462L68.5838 13.9985C68.6308 14.047 68.6742 14.099 68.7137 14.154C69.9374 15.8626 69.8113 18.0338 68.4073 19.434L65.335 22.4979C67.1202 25.4456 68.3896 28.5677 69.0525 31.6395H73.3704C75.5079 31.6395 77.186 33.1174 77.4513 35.2338C77.4583 35.2903 77.4619 35.3472 77.4619 35.4039V42.1152C77.4619 44.1227 75.9472 45.7687 73.86 46.0291C73.8039 46.0361 73.7473 46.0397 73.6908 46.0397H69.3332C68.5451 49.2215 67.24 52.2945 65.5116 55.0378L68.5675 58.0853C68.621 58.1385 68.6697 58.1961 68.7137 58.2573C69.9374 59.9658 69.8114 62.1371 68.4073 63.5374C68.4019 63.5429 68.3964 63.5482 68.3908 63.5537L63.5838 68.1877C63.535 68.2345 63.4831 68.2778 63.428 68.3169C62.6434 68.8752 61.7612 69.1513 60.901 69.1513Z" fill="#1F242C"/>
</svg>
